<?xml version="1.0" standalone="no"?>
<svg xmlns="http://www.w3.org/2000/svg" viewBox="0 0 140 73" width="140" height="73"><g fill="#C96332" color="#C96332" transform="translate(47.925 0) scale(0.6875) "><svg width="64.0" height="64.0" x="0.0" y="0.0" viewBox="0 0 64 64"><path d="M56,40.678V36c0-2.757-2.243-5-5-5h-2.511c0.884-0.956,1.646-2.016,2.281-3.166C51.174,27.94,51.585,28,52,28  c2.757,0,5-2.243,5-5c0-2.428-1.742-4.453-4.04-4.903C52.57,9.446,46.659,2.878,38.648,2.083C38.108,2.028,37.558,2,37,2  c-0.561,0-1.114,0.028-1.657,0.083C27.337,2.882,21.43,9.449,21.04,18.097C18.742,18.547,17,20.572,17,23c0,2.757,2.243,5,5,5  c0.415,0,0.826-0.06,1.23-0.166c0.635,1.149,1.397,2.209,2.281,3.166H23c-2.757,0-5,2.243-5,5v4.679  c-3.026,1.38-5.14,4.132-5.778,7.321H3c-0.294,0-0.573,0.129-0.763,0.354s-0.271,0.521-0.223,0.811l2,12C4.094,61.646,4.511,62,5,62  h6c0.489,0,0.906-0.354,0.986-0.836l1.209-7.256c1.081,1.601,2.81,2.724,4.804,3.012V57c0,2.757,2.243,5,5,5h28c2.757,0,5-2.243,5-5  v-0.08c3.387-0.488,6-3.401,6-6.92C62,45.988,59.645,42.34,56,40.678z M10.153,60H5.847L4.181,50h7.639L10.153,60z M55,23  c0,1.762-1.568,3.189-3.322,2.981c0.078-0.194,0.139-0.396,0.21-0.594c0.074-0.205,0.151-0.407,0.217-0.615  c0.159-0.497,0.3-1.003,0.417-1.517c0.044-0.192,0.076-0.388,0.114-0.583c0.085-0.437,0.158-0.878,0.212-1.323  c0.025-0.21,0.044-0.421,0.063-0.634c0.016-0.186,0.044-0.369,0.055-0.556C54.147,20.562,55,21.684,55,23z M23.051,17.838  c0.029-0.439,0.076-0.871,0.137-1.296c0.008-0.055,0.014-0.11,0.022-0.165c0.069-0.448,0.154-0.888,0.257-1.319  c0.006-0.024,0.011-0.047,0.016-0.071c1.23-5.073,4.77-8.948,9.439-10.383c0.056-0.017,0.114-0.028,0.17-0.045  c0.368-0.108,0.741-0.206,1.123-0.283c0.169-0.034,0.345-0.052,0.517-0.08c0.279-0.045,0.556-0.096,0.842-0.125  C36.041,4.026,36.517,4,37,4c0.497,0,0.987,0.025,1.468,0.074c0.016,0.002,0.032,0.005,0.048,0.007  c5.252,0.554,9.47,3.969,11.377,8.872c0.023,0.061,0.048,0.122,0.071,0.184c0.12,0.32,0.223,0.651,0.323,0.984  c0.055,0.187,0.112,0.373,0.161,0.564c0.054,0.208,0.098,0.421,0.145,0.633c0.066,0.309,0.132,0.619,0.181,0.937  c0.016,0.101,0.027,0.205,0.041,0.307c0.057,0.414,0.105,0.832,0.133,1.259c0,0.007,0,0.013,0.001,0.02  c-3.299,0.668-7.484-0.922-10.677-4.114c-1.002-1.003-1.865-2.128-2.564-3.346c-0.356-0.621-1.378-0.621-1.734,0  c-0.699,1.218-1.562,2.343-2.564,3.346c-3.063,3.062-7.119,4.675-10.361,4.175C23.05,17.881,23.05,17.86,23.051,17.838z   M22.322,25.981C20.567,26.189,19,24.762,19,23c0-1.316,0.853-2.438,2.035-2.841c0.011,0.187,0.039,0.37,0.055,0.556  c0.019,0.212,0.038,0.424,0.063,0.634c0.054,0.445,0.127,0.886,0.212,1.323c0.038,0.195,0.07,0.391,0.114,0.583  c0.117,0.514,0.258,1.02,0.417,1.517c0.067,0.208,0.143,0.411,0.217,0.615C22.184,25.585,22.245,25.788,22.322,25.981z   M24.511,25.978c-0.153-0.329-0.286-0.67-0.416-1.012c-0.075-0.195-0.157-0.385-0.224-0.583c-0.144-0.43-0.262-0.872-0.371-1.317  c-0.032-0.132-0.075-0.259-0.104-0.392c-0.111-0.506-0.19-1.022-0.254-1.542c-0.011-0.091-0.032-0.178-0.042-0.269  c-0.034-0.313-0.035-0.632-0.051-0.948c3.833,0.468,8.312-1.311,11.774-4.774c0.743-0.743,1.418-1.547,2.017-2.4  c0.599,0.854,1.274,1.657,2.018,2.4c3.115,3.115,6.99,4.856,10.51,4.856c0.538,0,1.067-0.044,1.585-0.127  c-0.017,0.331-0.019,0.664-0.054,0.992c-0.01,0.091-0.03,0.178-0.042,0.269c-0.064,0.52-0.143,1.036-0.254,1.542  c-0.029,0.133-0.072,0.26-0.104,0.392c-0.109,0.445-0.227,0.887-0.371,1.317c-0.067,0.199-0.15,0.389-0.224,0.583  c-0.13,0.342-0.263,0.683-0.416,1.012c-0.915,1.958-2.219,3.676-3.876,5.022H28.387C26.731,29.654,25.426,27.937,24.511,25.978z   M14,50c0-2.914,1.542-5.593,4-7.071v11.971C15.721,54.435,14,52.415,14,50z M54,57c0,1.654-1.346,3-3,3H23c-1.654,0-3-1.346-3-3v-1  V41.32V36c0-1.654,1.346-3,3-3h28c1.654,0,3,1.346,3,3v5.32V56V57z M56,54.899V42.929c2.458,1.479,4,4.157,4,7.071  C60,52.415,58.279,54.435,56,54.899z"></path><path d="M31,22c-1.654,0-3,1.346-3,3h2c0-0.552,0.449-1,1-1s1,0.448,1,1h2C34,23.346,32.654,22,31,22z"></path><path d="M43,22c-1.654,0-3,1.346-3,3h2c0-0.552,0.449-1,1-1s1,0.448,1,1h2C46,23.346,44.654,22,43,22z"></path><path d="M3,16h8.764l3.789,1.895C15.694,17.965,15.847,18,16,18c0.183,0,0.365-0.05,0.526-0.149C16.82,17.668,17,17.347,17,17v-2h1  c0.552,0,1-0.447,1-1V3c0-0.553-0.448-1-1-1H3C2.448,2,2,2.447,2,3v12C2,15.553,2.448,16,3,16z M4,4h13v9h-1c-0.552,0-1,0.447-1,1  v1.382l-2.553-1.276C12.309,14.036,12.155,14,12,14H4V4z"></path><rect x="6" y="6" width="2" height="2"></rect><rect x="10" y="6" width="5" height="2"></rect><rect x="6" y="10" width="9" height="2"></rect><path d="M47.646,38.551c-0.326-0.064-0.654,0.044-0.887,0.276L43.5,42.086L41.914,40.5l3.259-3.259  c0.232-0.232,0.335-0.563,0.277-0.887c-0.059-0.323-0.273-0.597-0.572-0.731c-1.399-0.633-2.94-0.788-4.451-0.446  c-2.604,0.585-4.665,2.646-5.25,5.249c-0.288,1.28-0.222,2.579,0.188,3.796l-7.451,7.45C27.333,52.253,27,53.057,27,53.879  C27,55.6,28.4,57,30.121,57c0.834,0,1.618-0.324,2.207-0.914l7.451-7.45c1.218,0.41,2.517,0.478,3.794,0.188  c2.604-0.585,4.665-2.646,5.25-5.249c0.34-1.514,0.186-3.053-0.446-4.452C48.242,38.823,47.968,38.609,47.646,38.551z   M46.872,43.135c-0.41,1.825-1.912,3.327-3.738,3.737c-1.086,0.245-2.188,0.135-3.188-0.317c-0.38-0.172-0.825-0.089-1.119,0.204  l-7.913,7.913C30.702,54.884,30.421,55,30.121,55C29.503,55,29,54.497,29,53.879c0-0.295,0.12-0.584,0.328-0.793l7.913-7.913  c0.294-0.294,0.375-0.74,0.204-1.119c-0.452-1-0.562-2.103-0.317-3.188c0.41-1.825,1.912-3.327,3.738-3.737  c0.376-0.085,0.755-0.127,1.131-0.127c0.187,0,0.373,0.011,0.557,0.031l-2.761,2.761c-0.391,0.391-0.391,1.023,0,1.414l3,3  c0.391,0.391,1.023,0.391,1.414,0l2.761-2.761C47.03,42.003,46.999,42.571,46.872,43.135z"></path></svg></g><path fill="#C92E28" fill-rule="nonzero" d="M4.10 20.74L0 20.74L0 0.12L4.10 0.12L4.10 7.49L6.05 7.49L6.05 0.12L10.15 0.12L10.15 20.74L6.05 20.74L6.05 11.38L4.10 11.38L4.10 20.74ZM17.02 20.93Q11.76 20.93 11.76 15.48L11.76 15.48L11.76 8.42Q11.76 5.93 13.16 4.45Q14.57 2.98 17.02 2.98L17.02 2.98Q19.46 2.98 20.87 4.45Q22.27 5.93 22.27 8.42L22.27 8.42L22.27 15.48Q22.27 20.93 17.02 20.93L17.02 20.93ZM17.02 17.69Q17.52 17.69 17.76 17.33Q18 16.97 18 16.34L18 16.34L18 7.75Q18 6.22 17.02 6.22L17.02 6.22Q16.03 6.22 16.03 7.75L16.03 7.75L16.03 16.34Q16.03 16.97 16.27 17.33Q16.51 17.69 17.02 17.69L17.02 17.69ZM27.46 20.93Q25.80 20.93 25.18 20.23Q24.55 19.54 24.55 18L24.55 18L24.55 7.03L23.38 7.03L23.38 3.84L24.55 3.84L24.55 0.12L28.63 0.12L28.63 3.84L29.83 3.84L29.83 7.03L28.63 7.03L28.63 16.90Q28.63 17.35 28.70 17.57Q28.78 17.78 29.09 17.78L29.09 17.78Q29.33 17.78 29.54 17.76Q29.76 17.74 29.83 17.74L29.83 17.74L29.83 20.62Q29.47 20.71 28.79 20.82Q28.10 20.93 27.46 20.93L27.46 20.93ZM36.84 20.74L36.84 0.12L42.43 0.12Q44.69 0.12 45.71 1.22Q46.73 2.33 46.73 4.82L46.73 4.82L46.73 5.74Q46.73 8.69 44.62 9.26L44.62 9.26Q45.91 9.60 46.44 10.82Q46.97 12.05 46.97 14.06L46.97 14.06Q46.97 17.35 45.98 19.04Q45.00 20.74 42.43 20.74L42.43 20.74L36.84 20.74ZM40.87 7.87L41.71 7.87Q42.24 7.87 42.43 7.48Q42.62 7.08 42.62 6.36L42.62 6.36L42.62 4.30Q42.62 3.29 41.74 3.29L41.74 3.29L40.87 3.29L40.87 7.87ZM41.28 17.11Q42.89 17.11 42.89 15.58L42.89 15.58L42.89 13.01Q42.89 12.07 42.61 11.59Q42.34 11.11 41.64 11.11L41.64 11.11L40.87 11.11L40.87 17.09L41.28 17.11ZM53.18 20.93Q50.47 20.93 49.30 19.44Q48.12 17.95 48.12 15L48.12 15L48.12 7.94Q48.12 5.52 49.51 4.25Q50.90 2.98 53.40 2.98L53.40 2.98Q58.46 2.98 58.46 7.94L58.46 7.94L58.46 9.22Q58.46 11.14 58.42 12.34L58.42 12.34L52.32 12.34L52.32 15.74Q52.32 16.66 52.51 17.17Q52.70 17.69 53.33 17.69L53.33 17.69Q53.81 17.69 54.01 17.40Q54.22 17.11 54.25 16.74Q54.29 16.37 54.29 15.65L54.29 15.65L54.29 13.94L58.46 13.94L58.46 14.95Q58.46 18.02 57.28 19.48Q56.09 20.93 53.18 20.93L53.18 20.93ZM52.30 10.25L54.29 10.25L54.29 7.99Q54.29 6.10 53.35 6.10L53.35 6.10Q52.30 6.10 52.30 7.99L52.30 7.99L52.30 10.25ZM63.17 20.93Q61.13 20.93 60.37 19.57Q59.62 18.22 59.62 15.70L59.62 15.70Q59.62 13.63 60.16 12.53Q60.70 11.42 61.66 10.91Q62.62 10.39 64.58 9.77L64.58 9.77L65.74 9.38L65.74 9.34L65.74 7.58Q65.74 6.89 65.46 6.52Q65.18 6.14 64.80 6.14L64.80 6.14Q64.46 6.14 64.21 6.46Q63.96 6.77 63.96 7.30L63.96 7.30L63.96 8.35L59.88 8.35L59.88 7.78Q59.88 5.18 61.09 4.08Q62.30 2.98 65.04 2.98L65.04 2.98Q67.22 2.98 68.59 4.12Q69.96 5.26 69.96 7.34L69.96 7.34L69.96 20.74L65.78 20.74L65.78 18.65Q65.47 19.73 64.79 20.33Q64.10 20.93 63.17 20.93L63.17 20.93ZM64.82 17.66Q65.30 17.66 65.51 17.27Q65.71 16.87 65.71 16.30L65.71 16.30L65.71 11.40Q64.78 11.76 64.33 12.31Q63.89 12.86 63.89 13.85L63.89 13.85L63.89 16.10Q63.89 17.66 64.82 17.66L64.82 17.66ZM71.57 20.74L71.57 3.17L75.77 3.17L75.77 5.40Q76.03 4.32 76.68 3.65Q77.33 2.98 78.41 2.98L78.41 2.98Q80.18 2.98 81.04 4.07Q81.89 5.16 81.89 7.18L81.89 7.18L81.89 20.74L77.76 20.74L77.76 7.61Q77.76 7.03 77.53 6.62Q77.30 6.22 76.82 6.22L76.82 6.22Q76.18 6.22 75.97 6.80Q75.77 7.39 75.77 8.38L75.77 8.38L75.77 20.74L71.57 20.74ZM88.37 20.93Q83.16 20.93 83.16 15.65L83.16 15.65L83.18 14.26L87.38 14.26L87.41 16.32Q87.41 16.94 87.65 17.27Q87.89 17.59 88.44 17.59L88.44 17.59Q89.28 17.59 89.28 16.22L89.28 16.22Q89.28 15.22 88.88 14.64Q88.49 14.06 87.62 13.42L87.62 13.42L85.39 11.69Q84.24 10.80 83.74 9.85Q83.23 8.90 83.23 7.18L83.23 7.18Q83.23 5.83 83.94 4.88Q84.65 3.94 85.82 3.46Q87.00 2.98 88.44 2.98L88.44 2.98Q93.55 2.98 93.55 8.06L93.55 8.06L93.55 8.40L89.21 8.40L89.21 7.73Q89.21 7.10 89.00 6.66Q88.80 6.22 88.32 6.22L88.32 6.22Q87.89 6.22 87.66 6.47Q87.43 6.72 87.43 7.15L87.43 7.15Q87.43 8.11 88.18 8.64L88.18 8.64L90.77 10.54Q92.16 11.57 92.90 12.78Q93.65 13.99 93.65 15.84L93.65 15.84Q93.65 18.29 92.26 19.61Q90.86 20.93 88.37 20.93L88.37 20.93ZM107.28 20.74L102.24 20.74L100.03 0.12L104.06 0.12L105.22 13.13L106.37 0.12L110.21 0.12L111.31 13.13L112.42 0.12L116.50 0.12L114.24 20.74L109.30 20.74L108.26 10.80L107.28 20.74ZM122.57 20.93Q119.86 20.93 118.68 19.44Q117.50 17.95 117.50 15L117.50 15L117.50 7.94Q117.50 5.52 118.90 4.25Q120.29 2.98 122.78 2.98L122.78 2.98Q127.85 2.98 127.85 7.94L127.85 7.94L127.85 9.22Q127.85 11.14 127.80 12.34L127.80 12.34L121.70 12.34L121.70 15.74Q121.70 16.66 121.90 17.17Q122.09 17.69 122.71 17.69L122.71 17.69Q123.19 17.69 123.40 17.40Q123.60 17.11 123.64 16.74Q123.67 16.37 123.67 15.65L123.67 15.65L123.67 13.94L127.85 13.94L127.85 14.95Q127.85 18.02 126.66 19.48Q125.47 20.93 122.57 20.93L122.57 20.93ZM121.68 10.25L123.67 10.25L123.67 7.99Q123.67 6.10 122.74 6.10L122.74 6.10Q121.68 6.10 121.68 7.99L121.68 7.99L121.68 10.25ZM136.15 20.93Q134.42 20.93 133.68 18.86L133.68 18.86L133.68 20.74L129.36 20.74L129.36 0L133.68 0L133.68 4.01Q134.69 2.98 136.03 2.98L136.03 2.98Q138.07 2.98 138.96 4.19Q139.85 5.40 139.85 7.68L139.85 7.68L139.85 16.15Q139.85 18.31 138.94 19.62Q138.02 20.93 136.15 20.93L136.15 20.93ZM134.74 17.66Q135.17 17.66 135.35 17.39Q135.53 17.11 135.56 16.69Q135.60 16.27 135.60 15.38L135.60 15.38L135.60 8.06Q135.60 7.13 135.43 6.67Q135.26 6.22 134.71 6.22L134.71 6.22Q134.11 6.22 133.90 6.67Q133.68 7.13 133.68 8.02L133.68 8.02L133.68 15.38Q133.68 16.54 133.87 17.10Q134.06 17.66 134.74 17.66L134.74 17.66Z" transform="translate(0, 52)"></path></svg>