<svg width="231" height="56" viewBox="0 0 231 56" fill="none" xmlns="http://www.w3.org/2000/svg">
<path d="M119.21 6.85349H113.463C113.572 7.27604 113.462 7.71035 113.463 8.14644V9.59237H118.464C118.632 9.61464 118.785 9.70035 118.89 9.83136C118.995 9.96238 119.044 10.1284 119.027 10.2944V31.9876H83.2404V10.2944C83.2222 10.1286 83.2708 9.96244 83.3756 9.8313C83.4804 9.70016 83.6333 9.61443 83.8015 9.59237H88.3535V8.14644C88.3543 7.71035 88.2438 7.27605 88.3535 6.85349H83.0569C82.7307 6.85344 82.4077 6.9165 82.1064 7.03906C81.805 7.16163 81.5312 7.3413 81.3006 7.56781C81.0699 7.79433 80.887 8.06324 80.7622 8.35921C80.6374 8.65517 80.5732 8.97238 80.5732 9.29272V33.8107C80.5748 34.4568 80.837 35.0759 81.3026 35.5324C81.7682 35.9888 82.399 36.2454 83.0569 36.2457H95.4452L93.1323 42.0462C93.0971 42.1337 93.0843 42.2282 93.0949 42.3216C93.1056 42.415 93.1393 42.5044 93.1931 42.5821C93.247 42.6598 93.3193 42.7234 93.4039 42.7673C93.4885 42.8112 93.5828 42.8342 93.6785 42.8342H108.514C108.609 42.8339 108.703 42.811 108.787 42.7675C108.871 42.724 108.943 42.6612 108.997 42.5843C109.051 42.5075 109.085 42.419 109.096 42.3264C109.108 42.2337 109.096 42.1398 109.062 42.0525L106.822 36.2457H119.21C119.868 36.2454 120.499 35.9888 120.965 35.5324C121.43 35.0759 121.692 34.4568 121.694 33.8107V9.29271C121.694 8.97237 121.63 8.65516 121.505 8.3592C121.38 8.06323 121.197 7.79431 120.967 7.5678C120.736 7.34129 120.462 7.16162 120.161 7.03905C119.86 6.91649 119.537 6.85343 119.21 6.85349Z" fill="#161415"/>
<path d="M111.177 9.69764C110.728 9.61047 110.273 9.56936 109.818 9.57494L106.795 12.6992C106.645 12.8769 106.551 13.098 106.526 13.3346C106.5 13.5712 106.543 13.8125 106.651 14.0281C107.011 14.694 107.158 15.4533 107.072 16.1961C106.986 16.9388 106.67 17.6264 106.171 18.1593L103.503 20.8128C103.923 21.1363 104.385 21.3943 104.876 21.578C105.558 21.8223 106.277 21.9259 106.989 21.8829C107.702 21.8399 108.395 21.6511 109.027 21.3276C109.913 20.9606 110.706 20.4021 111.355 19.6893C112.004 18.9765 112.493 18.1255 112.791 17.1926C113.193 15.9307 113.256 14.5704 112.972 13.2526C112.689 11.9348 112.069 10.7074 111.177 9.69764V9.69764ZM110.651 12.2952L109.369 13.5829C109.246 13.7032 109.165 13.8619 109.138 14.0358C109.11 14.2097 109.138 14.3899 109.217 14.55C109.577 15.2912 109.704 16.1222 109.581 16.9255C109.457 17.7288 109.089 18.4638 108.529 19.0264L108.434 19.0724L108.35 19.1133C108.287 19.1441 108.214 19.1501 108.146 19.1303C108.077 19.1104 108.017 19.066 107.976 19.0052C107.935 18.9444 107.917 18.8713 107.924 18.7994C107.931 18.7274 107.964 18.6613 108.016 18.6134L108.11 18.5673C108.584 18.094 108.895 17.4744 108.998 16.7969C109.102 16.1194 108.993 15.4187 108.687 14.7949C108.554 14.5191 108.507 14.2104 108.552 13.9117C108.598 13.6131 108.733 13.3395 108.94 13.1289L110.222 11.8412C110.249 11.8136 110.282 11.792 110.318 11.7776C110.354 11.7633 110.392 11.7564 110.432 11.7574C110.471 11.7585 110.509 11.7674 110.546 11.7837C110.582 11.8 110.615 11.8234 110.643 11.8525C110.67 11.8816 110.693 11.9158 110.708 11.9533C110.723 11.9907 110.731 12.0306 110.731 12.0707C110.731 12.1108 110.724 12.1503 110.709 12.1869C110.694 12.2236 110.673 12.2566 110.645 12.2842L110.651 12.2952Z" fill="#D9700D"/>
<path d="M93.1536 21.2011C93.1824 21.221 93.2169 21.2297 93.2508 21.2256C93.2846 21.2215 93.3155 21.2049 93.3377 21.1789C93.8062 20.7186 94.438 20.4702 95.0972 20.4869C95.7565 20.5036 96.3907 20.7841 96.8637 21.2682L99.8523 24.5473C100.316 24.0103 100.668 23.3803 100.885 22.6945C101.312 21.0835 101.095 19.3465 100.281 17.861C99.4665 16.3755 98.1216 15.2617 96.5383 14.7619C94.8288 14.1285 92.9645 14.1992 91.3456 14.9587C90.4624 15.3887 89.7097 16.0484 89.1603 16.8737L93.1536 21.2011Z" fill="#D9700D"/>
<path d="M110.129 32.6075H92.1385C91.7977 32.6075 91.4709 32.489 91.2299 32.2782C90.9889 32.0673 90.8535 31.7813 90.8535 31.4831C90.8535 31.1849 90.9889 30.8989 91.2299 30.688C91.4709 30.4772 91.7977 30.3587 92.1385 30.3587H110.129C110.47 30.3587 110.797 30.4772 111.038 30.688C111.279 30.8989 111.414 31.1849 111.414 31.4831C111.414 31.7813 111.279 32.0673 111.038 32.2782C110.797 32.489 110.47 32.6075 110.129 32.6075Z" fill="#201A1A"/>
<path d="M98.1809 26.9315C96.3696 27.7953 94.2674 27.8625 92.3319 27.1185C90.5032 26.4411 88.9512 25.0877 87.982 23.3252C87.5036 22.4787 87.1975 21.5457 87.0836 20.5869C86.9697 19.6281 87.0505 18.6651 87.3208 17.7607C87.6774 16.6419 88.32 15.6574 89.1823 14.9089C89.2904 14.7961 89.421 14.709 89.5658 14.6531C89.7106 14.5972 89.8664 14.5736 90.0235 14.5839C90.1806 14.5942 90.3356 14.6381 90.4786 14.7129C90.6217 14.7877 90.7498 14.8917 90.8548 15.0185C90.9599 15.1452 91.0396 15.2919 91.089 15.4493C91.1384 15.6067 91.1564 15.7714 91.1418 15.9331C91.1273 16.0947 91.0805 16.2499 91.0044 16.3887C90.9284 16.5275 90.8247 16.647 90.6999 16.7397C90.1527 17.2424 89.7542 17.8969 89.547 18.6335C89.3698 19.2134 89.3123 19.8312 89.3782 20.4479C89.4441 21.0646 89.632 21.6667 89.93 22.216C90.616 23.4591 91.7142 24.4118 93.0067 24.8851C93.826 25.2128 94.7002 25.3306 95.5528 25.2285C96.4055 25.1263 97.2108 24.8072 97.8983 24.299L95.3455 21.2679C95.3455 21.2679 95.2647 21.3073 95.2142 21.332C94.7639 21.7827 94.1511 22.0207 93.5099 21.9938C92.8687 21.9668 92.2512 21.6772 91.7926 21.1883L90.8728 20.2248C90.7645 20.1106 90.678 19.9763 90.6183 19.8297C90.5586 19.6831 90.5269 19.527 90.5251 19.3706C90.5233 19.2141 90.5514 19.0604 90.6077 18.9183C90.6641 18.7763 90.7476 18.6486 90.8534 18.5428C91.065 18.3304 91.3533 18.2183 91.6549 18.2311C91.9566 18.2439 92.247 18.3805 92.4623 18.611L93.372 19.5794C93.3984 19.6047 93.4327 19.619 93.4678 19.6193C93.5028 19.6196 93.536 19.6058 93.5603 19.5809C93.7802 19.3549 94.0432 19.1787 94.3341 19.0625C94.6249 18.9462 94.938 18.8922 95.2551 18.9036C95.5722 18.915 95.8871 18.9915 96.1817 19.1287C96.4763 19.2659 96.7447 19.4611 96.9714 19.703L100.306 23.645C100.488 23.8623 100.593 24.1361 100.601 24.4174C100.61 24.6987 100.522 24.969 100.354 25.18C99.7672 25.9263 99.0261 26.5238 98.1809 26.9315Z" fill="#201A1A"/>
<path d="M104.334 21.666C104.094 21.7832 103.821 21.8112 103.56 21.7451C103.42 21.7065 103.287 21.6444 103.166 21.5616C101.847 20.5218 100.889 19.0821 100.436 17.4586C99.9831 15.835 100.06 14.115 100.655 12.5566C102.019 8.4343 106.058 6.12916 109.65 7.40854C110.365 7.65929 111.029 8.04256 111.609 8.53856C111.842 8.73881 111.99 9.02366 112.018 9.33044C112.046 9.63722 111.953 9.94081 111.759 10.1744C111.565 10.408 111.286 10.5525 110.984 10.5761C110.681 10.5997 110.38 10.5004 110.146 10.3002C109.785 9.99405 109.372 9.7563 108.929 9.5986C106.535 8.74568 103.802 10.4269 102.824 13.338C102.478 14.2756 102.381 15.2921 102.541 16.2877C102.702 17.2833 103.115 18.2237 103.74 19.0162L105.895 16.6712C106.061 16.5081 106.174 16.2965 106.218 16.0647C106.261 15.8329 106.233 15.592 106.138 15.3744C105.827 14.7267 105.719 14.0009 105.83 13.2959C105.94 12.591 106.263 11.9412 106.755 11.4352L107.421 10.7736C107.528 10.6669 107.654 10.583 107.793 10.5265C107.932 10.47 108.082 10.4421 108.232 10.4444C108.383 10.4467 108.533 10.4791 108.672 10.5399C108.811 10.6006 108.938 10.6884 109.044 10.7983C109.151 10.9077 109.236 11.037 109.294 11.1789C109.352 11.3208 109.382 11.4725 109.383 11.6252C109.383 11.7779 109.353 11.9287 109.295 12.0688C109.238 12.209 109.153 12.3357 109.046 12.4418L108.379 13.1035C108.226 13.2703 108.126 13.4803 108.092 13.7067C108.058 13.9331 108.091 14.1658 108.188 14.3753C108.498 15.023 108.606 15.7488 108.496 16.4537C108.385 17.1587 108.062 17.8085 107.571 18.3144L104.692 21.4134C104.588 21.518 104.467 21.6035 104.334 21.666Z" fill="#201A1A"/>
<path d="M8.36697 55.5185V43.6025H9.71697V48.8945H16.647V43.6025H17.997V55.5185H16.647V50.2085H9.71697V55.5185H8.36697ZM53.5697 55.5185V44.8805H49.4117V43.6025H59.0777V44.8805H54.9197V55.5185H53.5697ZM68.8955 55.5185V43.6025H74.2415C75.1775 43.6025 75.9155 43.7645 76.4555 44.0885C77.0075 44.4125 77.4035 44.8205 77.6435 45.3125C77.8835 45.7925 78.0035 46.2725 78.0035 46.7525C78.0035 47.5205 77.8415 48.1145 77.5175 48.5345C77.1935 48.9425 76.8215 49.2425 76.4015 49.4345C76.7375 49.5425 77.0735 49.7165 77.4095 49.9565C77.7575 50.1845 78.0455 50.4965 78.2735 50.8925C78.5015 51.2885 78.6155 51.7865 78.6155 52.3865C78.6155 53.2745 78.2735 54.0185 77.5895 54.6185C76.9175 55.2185 75.9035 55.5185 74.5475 55.5185H68.8955ZM70.2455 48.9305H74.2415C74.6615 48.9305 75.0515 48.8585 75.4115 48.7145C75.7835 48.5705 76.0835 48.3485 76.3115 48.0485C76.5395 47.7365 76.6535 47.3405 76.6535 46.8605C76.6535 46.5245 76.5755 46.2065 76.4195 45.9065C76.2755 45.6065 76.0355 45.3605 75.6995 45.1685C75.3755 44.9765 74.9375 44.8805 74.3855 44.8805H70.2455V48.9305ZM70.2455 54.2405H74.6915C75.5075 54.2405 76.1375 54.0725 76.5815 53.7365C77.0375 53.3885 77.2655 52.9025 77.2655 52.2785C77.2655 51.7145 77.0495 51.2225 76.6175 50.8025C76.1855 50.3705 75.4955 50.1545 74.5475 50.1545H70.2455V54.2405ZM127.983 55.5185V43.6025H129.549L136.911 53.6285V43.6025H138.261V55.5185H136.695L129.333 45.4565V55.5185H127.983ZM153.55 55.6625C152.374 55.6625 151.42 55.5065 150.688 55.1945C149.956 54.8705 149.404 54.4265 149.032 53.8625C148.672 53.2985 148.462 52.6625 148.402 51.9545H149.806C149.842 52.5305 150.034 52.9985 150.382 53.3585C150.73 53.7065 151.186 53.9645 151.75 54.1325C152.326 54.3005 152.956 54.3845 153.64 54.3845C154.648 54.3845 155.446 54.2105 156.034 53.8625C156.622 53.5025 156.916 52.9745 156.916 52.2785C156.916 51.8585 156.766 51.5225 156.466 51.2705C156.178 51.0065 155.788 50.7905 155.296 50.6225C154.816 50.4545 154.288 50.3045 153.712 50.1725C153.136 50.0285 152.554 49.8785 151.966 49.7225C151.39 49.5665 150.856 49.3685 150.364 49.1285C149.884 48.8885 149.494 48.5825 149.194 48.2105C148.906 47.8265 148.762 47.3405 148.762 46.7525C148.762 45.7805 149.134 44.9885 149.878 44.3765C150.634 43.7645 151.756 43.4585 153.244 43.4585C154.3 43.4585 155.17 43.6205 155.854 43.9445C156.538 44.2565 157.048 44.6705 157.384 45.1865C157.732 45.7025 157.924 46.2605 157.96 46.8605H156.574C156.502 46.2605 156.202 45.7565 155.674 45.3485C155.146 44.9285 154.336 44.7185 153.244 44.7185C152.572 44.7185 152.026 44.7845 151.606 44.9165C151.186 45.0485 150.862 45.2225 150.634 45.4385C150.418 45.6425 150.268 45.8585 150.184 46.0865C150.112 46.3145 150.076 46.5305 150.076 46.7345C150.076 47.1305 150.22 47.4545 150.508 47.7065C150.808 47.9465 151.198 48.1505 151.678 48.3185C152.17 48.4745 152.71 48.6185 153.298 48.7505C153.886 48.8825 154.468 49.0325 155.044 49.2005C155.632 49.3565 156.166 49.5605 156.646 49.8125C157.138 50.0525 157.528 50.3645 157.816 50.7485C158.116 51.1325 158.266 51.6245 158.266 52.2245C158.266 53.3285 157.846 54.1805 157.006 54.7805C156.166 55.3685 155.014 55.6625 153.55 55.6625ZM170.87 55.5185L167.162 43.6025H168.584L171.644 53.6105L174.848 43.6025H176.396L179.6 53.6105L182.66 43.6025H184.082L180.374 55.5185H178.844L175.622 45.5105L172.4 55.5185H170.87ZM212.853 55.5185V43.6025H218.199C219.135 43.6025 219.873 43.7645 220.413 44.0885C220.965 44.4125 221.361 44.8205 221.601 45.3125C221.841 45.7925 221.961 46.2725 221.961 46.7525C221.961 47.5205 221.799 48.1145 221.475 48.5345C221.151 48.9425 220.779 49.2425 220.359 49.4345C220.695 49.5425 221.031 49.7165 221.367 49.9565C221.715 50.1845 222.003 50.4965 222.231 50.8925C222.459 51.2885 222.573 51.7865 222.573 52.3865C222.573 53.2745 222.231 54.0185 221.547 54.6185C220.875 55.2185 219.861 55.5185 218.505 55.5185H212.853ZM214.203 48.9305H218.199C218.619 48.9305 219.009 48.8585 219.369 48.7145C219.741 48.5705 220.041 48.3485 220.269 48.0485C220.497 47.7365 220.611 47.3405 220.611 46.8605C220.611 46.5245 220.533 46.2065 220.377 45.9065C220.233 45.6065 219.993 45.3605 219.657 45.1685C219.333 44.9765 218.895 44.8805 218.343 44.8805H214.203V48.9305ZM214.203 54.2405H218.649C219.465 54.2405 220.095 54.0725 220.539 53.7365C220.995 53.3885 221.223 52.9025 221.223 52.2785C221.223 51.7145 221.007 51.2225 220.575 50.8025C220.143 50.3705 219.453 50.1545 218.505 50.1545H214.203V54.2405Z" fill="black"/>
<path d="M34.3097 55.6625C33.4097 55.6625 32.5877 55.5065 31.8437 55.1945C31.0997 54.8825 30.4577 54.4445 29.9177 53.8805C29.3897 53.3165 28.9817 52.6685 28.6937 51.9365C28.4057 51.1925 28.2617 50.4005 28.2617 49.5605C28.2617 48.7085 28.4057 47.9165 28.6937 47.1845C28.9817 46.4525 29.3897 45.8045 29.9177 45.2405C30.4577 44.6765 31.0997 44.2385 31.8437 43.9265C32.5877 43.6145 33.4097 43.4585 34.3097 43.4585C35.2097 43.4585 36.0317 43.6145 36.7757 43.9265C37.5197 44.2385 38.1557 44.6765 38.6837 45.2405C39.2237 45.8045 39.6377 46.4525 39.9257 47.1845C40.2137 47.9165 40.3577 48.7085 40.3577 49.5605C40.3577 50.4005 40.2137 51.1925 39.9257 51.9365C39.6377 52.6685 39.2237 53.3165 38.6837 53.8805C38.1557 54.4445 37.5197 54.8825 36.7757 55.1945C36.0317 55.5065 35.2097 55.6625 34.3097 55.6625ZM34.3097 54.3485C35.2817 54.3485 36.1157 54.1385 36.8117 53.7185C37.5197 53.2865 38.0597 52.7105 38.4317 51.9905C38.8157 51.2585 39.0077 50.4485 39.0077 49.5605C39.0077 48.6605 38.8157 47.8505 38.4317 47.1305C38.0597 46.4105 37.5197 45.8405 36.8117 45.4205C36.1157 44.9885 35.2817 44.7725 34.3097 44.7725C33.3497 44.7725 32.5157 44.9885 31.8077 45.4205C31.0997 45.8405 30.5537 46.4105 30.1697 47.1305C29.7977 47.8505 29.6117 48.6605 29.6117 49.5605C29.6117 50.4485 29.7977 51.2585 30.1697 51.9905C30.5537 52.7105 31.0997 53.2865 31.8077 53.7185C32.5157 54.1385 33.3497 54.3485 34.3097 54.3485ZM88.9135 55.5185V43.6025H97.6795V44.8985H90.2635V48.8945H96.8875V50.2085H90.2635V54.2225H97.6795V55.5185H88.9135ZM106.561 55.5185L111.619 43.6025H113.311L118.369 55.5185H116.875L115.417 52.0625H109.513L108.055 55.5185H106.561ZM110.035 50.8205H114.895L112.465 45.0065L110.035 50.8205ZM193.802 55.5185V43.6025H202.568V44.8985H195.152V48.8945H201.776V50.2085H195.152V54.2225H202.568V55.5185H193.802Z" fill="#D9700D"/>
</svg>
