<svg width="83" height="75" viewBox="0 0 83 75" fill="none" xmlns="http://www.w3.org/2000/svg">
<mask id="mask0" mask-type="alpha" maskUnits="userSpaceOnUse" x="0" y="0" width="83" height="75">
<ellipse cx="41.5" cy="37.5" rx="41.5" ry="37.5" fill="#C4C4C4"/>
</mask>
<g mask="url(#mask0)">
<path d="M74.4646 10.1288H63.9685C64.1689 10.9005 63.967 11.6935 63.9685 12.4899V15.1303H73.1009C73.4083 15.171 73.6875 15.3275 73.8795 15.5667C74.0714 15.806 74.1611 16.1092 74.1295 16.4123V56.0263H8.77953V16.4123C8.74643 16.1095 8.83504 15.8061 9.02647 15.5666C9.2179 15.3271 9.497 15.1706 9.80428 15.1303H18.1167V12.4899C18.1181 11.6935 17.9163 10.9005 18.1167 10.1288H8.44448C7.84886 10.1287 7.25906 10.2439 6.70876 10.4677C6.15846 10.6915 5.65844 11.0196 5.23728 11.4333C4.81611 11.8469 4.48204 12.338 4.25414 12.8784C4.02625 13.4189 3.909 13.9981 3.9091 14.5831V59.3556C3.91186 60.5354 4.39082 61.666 5.241 62.4995C6.09117 63.3331 7.24318 63.8015 8.44448 63.8022H31.0668L26.8432 74.3945C26.7791 74.5542 26.7557 74.7268 26.7751 74.8974C26.7944 75.0679 26.856 75.2313 26.9543 75.3731C27.0527 75.515 27.1848 75.6311 27.3393 75.7113C27.4938 75.7915 27.6659 75.8334 27.8407 75.8334H54.9321C55.1056 75.8329 55.2763 75.7911 55.4298 75.7117C55.5832 75.6322 55.7148 75.5174 55.8132 75.3771C55.9117 75.2368 55.974 75.0752 55.995 74.9061C56.0159 74.7369 55.9948 74.5653 55.9334 74.406L51.8423 63.8022H74.4646C75.6659 63.8015 76.8179 63.3331 77.6681 62.4995C78.5183 61.666 78.9972 60.5354 79 59.3556V14.5831C79.0001 13.9981 78.8828 13.4189 78.6549 12.8784C78.4271 12.3379 78.093 11.8469 77.6718 11.4332C77.2506 11.0196 76.7506 10.6915 76.2003 10.4677C75.65 10.2439 75.0602 10.1287 74.4646 10.1288Z" fill="#161415"/>
<path d="M59.7945 15.3225C58.9743 15.1633 58.1432 15.0883 57.3137 15.0985L51.7935 20.8036C51.5193 21.1281 51.3478 21.5319 51.3008 21.964C51.2538 22.396 51.3334 22.8367 51.5296 23.2304C52.187 24.4463 52.4564 25.833 52.2988 27.1893C52.1412 28.5457 51.5647 29.8014 50.6529 30.7744L45.7811 35.62C46.5473 36.2107 47.3926 36.6818 48.2883 37.0173C49.5342 37.4634 50.8464 37.6527 52.1479 37.5742C53.4495 37.4957 54.7143 37.1509 55.8682 36.5601C57.4858 35.8898 58.9351 34.8701 60.12 33.5684C61.3049 32.2666 62.1986 30.7126 62.7418 29.0091C63.477 26.7048 63.5915 24.2208 63.0733 21.8143C62.5551 19.4078 61.4231 17.1665 59.7945 15.3225V15.3225ZM58.8335 20.0659L56.4933 22.4173C56.2688 22.6371 56.1209 22.9268 56.071 23.2445C56.0211 23.5621 56.0718 23.891 56.2157 24.1835C56.873 25.537 57.1053 27.0545 56.8797 28.5214C56.6541 29.9883 55.9819 31.3304 54.9584 32.3578L54.786 32.4419L54.6326 32.5166C54.5173 32.5728 54.3847 32.5838 54.2592 32.5475C54.1337 32.5113 54.0238 32.4302 53.9495 32.3192C53.8752 32.2082 53.8416 32.0747 53.8548 31.9432C53.8681 31.8118 53.9273 31.6912 54.0216 31.6036L54.1941 31.5195C55.0591 30.6552 55.6268 29.5237 55.816 28.2865C56.0053 27.0493 55.8064 25.7698 55.2478 24.6306C55.005 24.1269 54.919 23.5632 55.0018 23.0179C55.0846 22.4726 55.3321 21.9729 55.7098 21.5884L58.05 19.2369C58.1002 19.1865 58.1599 19.1471 58.2257 19.1208C58.2915 19.0946 58.3621 19.082 58.4335 19.0839C58.5049 19.0858 58.5757 19.1022 58.6419 19.1319C58.708 19.1617 58.7682 19.2044 58.819 19.2575C58.8698 19.3106 58.9102 19.3732 58.938 19.4415C58.9657 19.5099 58.9802 19.5828 58.9807 19.656C58.9811 19.7292 58.9675 19.8013 58.9406 19.8682C58.9136 19.9351 58.874 19.9955 58.8238 20.0459L58.8335 20.0659Z" fill="#D9700D"/>
<path d="M26.8822 36.3292C26.9347 36.3654 26.9978 36.3813 27.0596 36.3738C27.1214 36.3663 27.1778 36.336 27.2183 36.2885C28.0739 35.448 29.2275 34.9943 30.4314 35.0248C31.6353 35.0553 32.7935 35.5676 33.6572 36.4517L39.1147 42.4396C39.962 41.4589 40.6035 40.3085 41.0013 39.0563C41.7802 36.1144 41.3832 32.9423 39.8967 30.2297C38.4101 27.517 35.9543 25.4832 33.063 24.5704C29.9412 23.4138 26.5369 23.5428 23.5805 24.9298C21.9678 25.7151 20.5932 26.9197 19.59 28.4269L26.8822 36.3292Z" fill="#D9700D"/>
<path d="M57.8808 57.1583H25.0285C24.4061 57.1583 23.8093 56.942 23.3692 56.557C22.9291 56.1719 22.6819 55.6496 22.6819 55.1051C22.6819 54.5605 22.9291 54.0383 23.3692 53.6532C23.8093 53.2681 24.4061 53.0518 25.0285 53.0518H57.8808C58.5031 53.0518 59.1 53.2681 59.54 53.6532C59.9801 54.0383 60.2273 54.5605 60.2273 55.1051C60.2273 55.6496 59.9801 56.1719 59.54 56.557C59.1 56.942 58.5031 57.1583 57.8808 57.1583Z" fill="#201A1A"/>
<path d="M36.0626 46.7934C32.7548 48.3707 28.916 48.4935 25.3817 47.135C22.0422 45.8978 19.2081 43.4264 17.4382 40.2079C16.5647 38.6622 16.0058 36.9583 15.7977 35.2074C15.5897 33.4565 15.7372 31.698 16.2308 30.0465C16.882 28.0035 18.0555 26.2056 19.6301 24.8388C19.8276 24.6329 20.0661 24.4739 20.3304 24.3718C20.5948 24.2696 20.8794 24.2266 21.1663 24.2454C21.4532 24.2642 21.7361 24.3444 21.9974 24.481C22.2587 24.6175 22.4926 24.8075 22.6844 25.0389C22.8762 25.2703 23.0218 25.5382 23.112 25.8256C23.2022 26.113 23.235 26.4138 23.2084 26.7091C23.1819 27.0043 23.0964 27.2876 22.9576 27.5411C22.8187 27.7946 22.6293 28.0128 22.4015 28.1821C21.4021 29.1001 20.6746 30.2952 20.2961 31.6403C19.9725 32.6992 19.8675 33.8275 19.9879 34.9536C20.1083 36.0798 20.4514 37.1792 20.9954 38.1823C22.2483 40.4525 24.2536 42.1922 26.6139 43.0565C28.11 43.6548 29.7064 43.8701 31.2634 43.6835C32.8205 43.4969 34.291 42.9142 35.5465 41.9861L30.8849 36.4511C30.8849 36.4511 30.7372 36.5231 30.645 36.568C29.8227 37.3912 28.7037 37.8258 27.5328 37.7766C26.3619 37.7274 25.2343 37.1985 24.3969 36.3056L22.7172 34.5462C22.5194 34.3377 22.3614 34.0925 22.2524 33.8247C22.1434 33.557 22.0856 33.272 22.0823 32.9864C22.079 32.7007 22.1303 32.42 22.2332 32.1605C22.3361 31.901 22.4885 31.6679 22.6818 31.4747C23.0681 31.0869 23.5946 30.8822 24.1455 30.9056C24.6963 30.9289 25.2266 31.1784 25.6199 31.5993L27.281 33.3677C27.3293 33.414 27.3919 33.4401 27.4559 33.4406C27.5199 33.4411 27.5804 33.4159 27.6249 33.3703C28.0264 32.9577 28.5067 32.636 29.0378 32.4237C29.569 32.2115 30.1406 32.1129 30.7197 32.1336C31.2988 32.1543 31.8739 32.294 32.4118 32.5446C32.9497 32.7951 33.4398 33.1516 33.8538 33.5934L39.9429 40.7919C40.2754 41.1886 40.4668 41.6887 40.4828 42.2023C40.4988 42.716 40.3383 43.2097 40.0302 43.5949C38.9594 44.9577 37.6059 46.0488 36.0626 46.7934Z" fill="#201A1A"/>
<path d="M47.2981 37.1781C46.8612 37.3921 46.3616 37.4432 45.8861 37.3225C45.6302 37.2519 45.387 37.1387 45.1668 36.9873C42.7571 35.0886 41.0075 32.4596 40.1806 29.4948C39.3536 26.53 39.4938 23.3892 40.5802 20.5434C43.0723 13.0155 50.4476 8.80609 57.0062 11.1424C58.3116 11.6003 59.5247 12.3002 60.583 13.2059C61.01 13.5716 61.2789 14.0918 61.3304 14.652C61.3819 15.2122 61.2119 15.7666 60.8577 16.1932C60.5035 16.6198 59.9942 16.8836 59.4419 16.9267C58.8895 16.9698 58.3393 16.7885 57.9122 16.4229C57.2522 15.8638 56.499 15.4296 55.6896 15.1417C51.3172 13.5841 46.3281 16.6542 44.5415 21.9702C43.9098 23.6823 43.7319 25.5387 44.025 27.3567C44.3182 29.1748 45.0725 30.892 46.2136 32.3393L50.1486 28.0569C50.4532 27.7592 50.659 27.3727 50.7383 26.9494C50.8177 26.5261 50.7668 26.0862 50.5926 25.6888C50.0249 24.5061 49.8284 23.1807 50.03 21.8934C50.2316 20.606 50.8215 19.4195 51.719 18.4956L52.9368 17.2873C53.1308 17.0926 53.3615 16.9392 53.6157 16.8361C53.8699 16.7329 54.1425 16.682 54.4179 16.6862C54.6932 16.6904 54.966 16.7496 55.2204 16.8605C55.4748 16.9715 55.7059 17.1318 55.9004 17.3325C56.0958 17.5322 56.251 17.7684 56.357 18.0275C56.463 18.2866 56.5177 18.5636 56.5181 18.8425C56.5184 19.1213 56.4643 19.3966 56.3589 19.6525C56.2535 19.9084 56.0989 20.1399 55.9039 20.3337L54.6862 21.5419C54.4067 21.8466 54.2241 22.2301 54.1617 22.6435C54.0994 23.057 54.1599 23.4819 54.3358 23.8644C54.9035 25.0472 55.0999 26.3726 54.8983 27.6599C54.6967 28.9472 54.1069 30.1337 53.2093 31.0577L47.9534 36.7168C47.7632 36.9078 47.5416 37.0638 47.2981 37.1781Z" fill="#201A1A"/>
</g>
</svg>
